<svg xmlns="http://www.w3.org/2000/svg" width="98.899" height="83.778" viewBox="0 0 98.899 83.778" fill="none">
  <path d="M 35.282 83.177 C 31.969 82.396 27.616 79.535 25.796 76.869 C 22.873 72.576 20.144 64.903 20.144 60.61 C 20.144 56.774 19.754 56.513 16.376 57.554 C 9.748 59.505 3.056 57.944 0.977 53.912 C -0.582 50.921 -0.257 46.303 1.822 41.881 C 3.771 37.784 8.579 32.451 11.763 30.76 C 14.037 29.59 14.102 29.2 12.087 27.314 C 9.619 24.973 9.424 23.022 11.373 18.99 C 13.972 13.787 18.26 9.82 25.472 5.918 C 35.672 0.52 46.068 -1.496 50.356 1.171 C 51.85 2.016 56.528 8.259 58.152 11.446 C 58.217 11.576 59.387 10.991 60.816 10.275 C 62.7 9.3 64.065 9.04 66.144 9.3 C 76.474 10.665 93.432 27.054 97.785 39.93 C 99.215 44.092 99.28 52.156 97.915 55.213 C 95.641 60.35 90.054 63.212 85.376 61.716 C 82.257 60.74 79.398 59.05 75.955 56.123 C 74.46 54.888 73.096 53.912 72.836 53.912 C 72.576 53.912 72.056 55.603 71.602 57.684 C 70.172 64.642 66.014 68.935 60.621 69.195 C 57.698 69.26 57.568 69.39 56.203 72.511 C 54.774 75.763 50.941 79.73 47.627 81.486 C 46.068 82.266 38.791 83.957 37.751 83.762 C 37.556 83.697 36.452 83.502 35.282 83.177 Z M 43.079 77.064 C 46.652 75.763 49.576 73.227 51.33 70.04 L 52.825 67.179 L 50.421 64.057 C 47.367 60.025 46.198 57.164 45.678 52.481 C 45.353 49.035 45.093 48.644 42.819 47.084 C 38.856 44.482 35.152 35.443 35.087 28.484 C 35.087 27.184 34.893 26.013 34.698 25.818 C 34.503 25.558 32.554 26.273 30.344 27.314 C 28.135 28.354 24.757 29.46 22.808 29.85 C 16.441 31.021 10.268 36.158 6.825 43.117 C 5.006 46.758 4.746 49.815 6.11 51.701 C 7.539 53.587 12.932 53.327 17.805 51.116 C 21.833 49.23 24.302 48.905 25.082 50.075 C 25.342 50.465 25.602 53.457 25.667 56.774 C 25.991 66.789 29.37 74.332 34.633 76.673 C 37.816 78.169 39.7 78.234 43.079 77.064 Z M 62.311 63.992 C 65.104 62.561 66.794 58.399 67.118 52.091 C 67.638 43.052 69.328 42.661 77.124 50.01 C 83.491 55.993 87.195 57.814 90.248 56.513 C 92.782 55.473 93.887 52.676 93.887 47.409 C 93.887 42.531 91.613 36.939 87.195 31.021 C 81.412 23.217 69.652 14.242 65.169 14.242 C 63.09 14.242 59.777 15.413 59.777 16.128 C 59.842 16.323 60.231 18.274 60.751 20.42 C 61.986 25.428 61.986 33.297 60.751 37.394 C 59.322 42.206 56.398 45.783 52.24 47.734 C 48.796 49.36 48.667 49.49 49.056 51.506 C 49.966 55.993 52.825 60.675 56.138 62.887 C 59.712 65.293 59.842 65.293 62.311 63.992 Z M 53.085 40.515 C 55.294 37.979 56.528 33.817 56.528 28.679 C 56.463 21.071 52.565 10.015 48.017 4.943 L 45.808 2.471 L 41 3.837 C 31.319 6.568 22.028 12.421 17.48 18.599 C 15.011 21.981 15.141 23.997 17.87 24.778 C 20.859 25.623 23.782 24.843 30.085 21.656 C 36.062 18.664 37.751 18.274 38.921 19.64 C 39.311 20.16 39.895 23.412 40.285 26.989 C 41.13 34.662 42.429 38.955 44.703 41.621 C 46.133 43.377 46.652 43.572 48.667 43.247 C 50.291 43.052 51.655 42.141 53.085 40.515 Z" fill="#7F56D9" fill-rule="nonzero"></path>
</svg>