<svg xmlns="http://www.w3.org/2000/svg" width="27.500" height="28.500" viewBox="0 0 27.500 28.500" fill="none">
  <path d="M -2 18 C -2 19.105 -1.105 20 0 20 C 1.105 20 2 19.105 2 18 L -2 18 Z M 1.897 -0.632 C 1.548 -1.68 0.415 -2.247 -0.632 -1.897 C -1.68 -1.548 -2.247 -0.415 -1.897 0.632 L 1.897 -0.632 Z M 6.114 20.058 C 5.318 20.824 5.293 22.09 6.058 22.886 C 6.824 23.682 8.09 23.707 8.886 22.942 L 6.114 20.058 Z M 23.488 0.221 C 23.61 -0.877 22.819 -1.866 21.721 -1.988 C 20.623 -2.11 19.634 -1.319 19.512 -0.221 L 23.488 0.221 Z M 10.5 26.5 C 9.395 26.5 8.5 27.395 8.5 28.5 C 8.5 29.605 9.395 30.5 10.5 30.5 L 10.5 26.5 Z M 28.728 23.079 C 29.6 22.401 29.757 21.144 29.079 20.272 C 28.401 19.4 27.144 19.243 26.272 19.921 L 28.728 23.079 Z M 2 18 C 2 17.499 2.132 16.783 2.38 15.595 C 2.611 14.485 2.91 13.092 3.11 11.498 C 3.513 8.27 3.511 4.209 1.897 -0.632 L -1.897 0.632 C -0.511 4.791 -0.513 8.23 -0.86 11.002 C -1.035 12.408 -1.299 13.64 -1.536 14.78 C -1.757 15.842 -2 17.001 -2 18 L 2 18 Z M 8.886 22.942 C 11.125 20.789 14.507 17.125 17.446 13.059 C 20.327 9.074 23.026 4.376 23.488 0.221 L 19.512 -0.221 C 19.174 2.824 17.04 6.793 14.204 10.716 C 11.426 14.558 8.208 18.044 6.114 20.058 L 8.886 22.942 Z M 10.5 30.5 C 13.624 30.5 21.187 28.944 28.728 23.079 L 26.272 19.921 C 19.413 25.256 12.71 26.5 10.5 26.5 L 10.5 30.5 Z" fill="#7F56D9" fill-rule="nonzero"></path>
</svg>