<svg xmlns="http://www.w3.org/2000/svg" width="71.890" height="74.504" viewBox="0 0 71.890 74.504" fill="none">
  <path d="M -2.5 47.055 C -2.5 48.436 -1.381 49.555 0 49.555 C 1.381 49.555 2.5 48.436 2.5 47.055 L -2.5 47.055 Z M 2.372 -0.791 C 1.935 -2.1 0.519 -2.808 -0.791 -2.372 C -2.1 -1.935 -2.808 -0.519 -2.372 0.791 L 2.372 -0.791 Z M 17.874 54.403 C 16.878 55.36 16.847 56.943 17.804 57.938 C 18.761 58.933 20.344 58.964 21.339 58.007 L 17.874 54.403 Z M 58.69 0.276 C 58.842 -1.096 57.853 -2.332 56.481 -2.485 C 55.109 -2.637 53.873 -1.648 53.72 -0.276 L 58.69 0.276 Z M 27.449 72.004 C 26.068 72.004 24.949 73.124 24.949 74.504 C 24.949 75.885 26.068 77.004 27.449 77.004 L 27.449 72.004 Z M 73.425 58.178 C 74.515 57.331 74.711 55.76 73.863 54.67 C 73.016 53.58 71.445 53.384 70.355 54.232 L 73.425 58.178 Z M 2.5 47.055 C 2.5 45.406 2.921 43.232 3.55 40.213 C 4.159 37.289 4.917 33.759 5.422 29.72 C 6.438 21.592 6.435 11.401 2.372 -0.791 L -2.372 0.791 C 1.407 12.127 1.405 21.542 0.46 29.1 C -0.015 32.903 -0.728 36.234 -1.345 39.193 C -1.941 42.056 -2.5 44.783 -2.5 47.055 L 2.5 47.055 Z M 21.339 58.007 C 27.093 52.474 35.823 43.017 43.396 32.541 C 50.896 22.165 57.567 10.381 58.69 0.276 L 53.72 -0.276 C 52.752 8.441 46.787 19.314 39.343 29.612 C 31.972 39.809 23.448 49.043 17.874 54.403 L 21.339 58.007 Z M 27.449 77.004 C 34.992 77.004 54.176 73.149 73.425 58.178 L 70.355 54.232 C 51.96 68.539 33.849 72.004 27.449 72.004 L 27.449 77.004 Z" fill="#7F56D9" fill-rule="nonzero"></path>
</svg>