<svg xmlns="http://www.w3.org/2000/svg" width="30.290" height="37.561" viewBox="0 0 30.290 37.561" fill="none">
  <path d="M 18.336 36.67 C 12.163 34.459 3.847 26.785 2.093 21.713 C -0.441 14.494 -0.441 13.974 0.858 10.917 C 3.457 4.999 10.474 0.642 18.011 0.057 C 23.598 -0.333 27.627 1.292 29.186 4.674 C 29.771 5.91 30.29 7.341 30.29 7.861 C 30.225 9.812 27.562 14.364 24.768 17.421 L 21.779 20.607 L 24.703 24.639 C 27.042 27.826 27.692 29.256 27.692 31.272 C 27.692 34.654 26.847 36.085 24.378 36.93 C 21.779 37.841 21.454 37.776 18.336 36.67 Z M 22.494 31.207 C 22.494 30.492 21.324 28.541 19.895 26.915 C 15.087 21.323 15.022 20.347 19.83 15.209 C 25.483 9.226 26.132 7.015 22.689 5.715 C 18.271 4.024 11.384 6.43 6.446 11.373 L 3.002 14.754 L 3.977 17.421 C 5.211 21.062 7.615 24.054 11.644 27.11 C 18.076 32.053 22.494 33.679 22.494 31.207 Z" fill="#7F56D9" fill-rule="nonzero"></path>
</svg>