<svg xmlns="http://www.w3.org/2000/svg" width="160.566" height="88.318" viewBox="0 0 160.566 88.318" fill="none">
  <path d="M 96.551 86.594 C 94.147 85.614 90.14 83.118 87.736 81.068 C 82.304 76.345 73.756 64.936 69.749 57.004 C 68.057 53.707 66.544 50.944 66.277 50.944 C 66.099 50.944 65.208 52.192 64.496 53.707 C 62.537 57.45 57.105 63.243 54.167 64.847 C 52.742 65.56 49.804 66.095 47.489 66.095 C 43.66 66.095 42.948 65.739 39.653 62.263 C 35.201 57.628 32.886 51.657 32.352 43.368 C 31.55 32.495 32.263 33.297 23.358 33.297 C 12.228 33.297 5.105 30.534 1.721 24.83 C -1.573 19.483 -0.149 14.224 6.084 8.877 C 8.043 7.272 11.516 5.223 13.92 4.42 C 18.639 2.727 37.961 0.232 47.578 0.053 C 67.434 -0.303 138.935 1.212 142.229 2.103 C 147.305 3.351 155.14 10.481 158.168 16.541 C 160.75 21.622 161.373 30.178 159.415 34.01 C 154.695 43.012 145.168 45.596 127.894 42.388 C 123.62 41.586 119.88 41.14 119.613 41.318 C 119.435 41.586 120.058 44.883 121.037 48.716 C 124.599 62.797 122.907 75.632 116.407 82.672 C 110.976 88.555 104.832 89.802 96.551 86.594 Z M 110.174 80.355 C 117.209 76.077 118.9 63.243 114.448 47.468 C 112.4 39.714 112.311 38.823 113.469 36.951 C 115.428 34.099 116.051 34.099 130.387 36.773 C 138.846 38.377 140.983 38.555 145.168 37.664 C 150.866 36.506 153.805 33.921 154.784 29.376 C 155.853 24.295 154.25 19.393 149.798 14.402 C 142.586 6.381 145.88 6.827 96.996 6.738 C 73.222 6.649 47.667 6.381 40.098 6.114 C 24.694 5.579 19.173 6.559 12.406 10.659 C 10.18 11.996 7.598 14.581 6.708 16.363 C 5.016 19.393 5.016 19.661 6.529 21.978 C 9.29 26.167 14.276 27.771 24.961 27.771 C 31.817 27.771 34.756 28.128 35.468 28.93 C 36.002 29.643 36.893 34.188 37.338 39.179 C 38.852 53.707 42.413 60.748 48.379 60.748 C 52.297 60.748 58.53 53.885 61.379 46.488 C 63.338 41.586 63.962 40.694 65.831 40.694 C 67.701 40.694 68.77 42.031 72.955 50.142 C 79.188 62.174 81.414 65.471 88.27 72.869 C 96.64 81.781 103.763 84.277 110.174 80.355 Z" fill="#7F56D9" fill-rule="nonzero"></path>
</svg>