<svg xmlns="http://www.w3.org/2000/svg" width="142.570" height="78.522" viewBox="0 0 142.570 78.522" fill="none">
  <path d="M 26.925 77.644 C -2.767 72.246 -8.874 50.591 13.476 29.845 C 28.55 15.928 54.149 3.377 73.38 0.515 C 80.657 -0.525 91.442 0.06 96.9 1.816 C 104.957 4.352 109.959 10.986 108.79 17.489 C 106.971 27.309 94.366 36.999 77.668 41.291 C 67.208 43.957 50.38 44.217 49.536 41.681 C 49.211 40.706 50.51 40.51 61.425 39.665 C 72.406 38.82 80.592 36.739 88.714 32.772 C 98.784 27.829 104.632 21.326 104.632 15.083 C 104.632 8.449 95.796 3.832 82.931 3.832 C 61.685 3.832 32.448 16.904 15.295 34.072 C 7.174 42.201 4.315 47.274 4.315 53.907 C 4.25 57.419 4.575 58.655 6.07 61.256 C 14.646 75.888 46.222 78.294 83.191 67.109 C 103.397 61.061 118.081 54.883 130.231 47.469 C 138.807 42.201 145.564 39.47 141.211 43.047 C 137.702 45.973 121.784 55.728 115.352 58.915 C 98.914 67.109 73.835 74.978 55.838 77.644 C 47.586 78.815 33.358 78.815 26.925 77.644 Z" fill="#7F56D9" fill-rule="nonzero"></path>
</svg>