<svg xmlns="http://www.w3.org/2000/svg" width="149.241" height="67.547" viewBox="0 0 149.241 67.547" fill="none">
  <path d="M 140.535 66.928 C 139.43 66.668 135.077 66.083 130.854 65.692 C 118.964 64.587 110.713 61.4 109.023 57.303 C 108.309 55.677 108.374 55.027 109.348 53.011 C 110.453 50.67 114.351 47.288 116.82 46.508 C 117.47 46.248 118.054 45.728 118.054 45.337 C 117.989 44.297 109.413 35.322 105.645 32.331 C 102.656 29.925 98.758 27.974 97.004 27.974 C 95.379 27.974 91.546 31.811 88.557 36.363 C 82.06 46.313 77.837 50.28 72.769 51.125 C 64.778 52.361 56.981 42.411 48.665 20.17 C 44.247 8.399 42.622 5.993 40.348 7.879 C 39.763 8.334 37.749 11.846 35.865 15.682 C 30.018 27.583 26.509 31.225 20.857 31.225 C 15.139 31.225 7.797 24.787 3.444 16.073 C 0.845 10.675 -0.714 4.822 0.326 3.782 C 1.3 2.806 2.21 3.651 3.054 6.383 C 5.718 14.642 13.255 24.527 17.933 25.958 C 22.611 27.323 23.456 26.543 29.693 13.992 C 34.046 5.212 35.67 2.676 37.424 1.505 C 43.142 -2.332 47.82 1.115 52.043 12.431 C 57.891 27.779 60.36 33.436 63.088 37.663 C 66.012 42.216 68.936 44.882 71.015 44.882 C 73.549 44.882 76.732 41.695 81.995 33.762 C 88.752 23.681 91.091 21.796 96.874 21.796 C 99.797 21.796 101.682 22.186 104.021 23.421 C 107.789 25.372 115.715 32.591 119.094 37.208 L 121.563 40.525 L 122.667 36.493 C 123.902 31.746 125.656 29.73 129.489 28.234 C 140.145 24.137 149.241 36.688 149.241 55.417 C 149.241 62.831 148.266 66.018 145.667 66.993 C 143.718 67.774 143.134 67.708 140.535 66.928 Z M 144.043 56.718 C 143.978 40.72 136.506 29.079 129.944 34.737 C 128.19 36.298 128.125 36.493 128.06 43.061 C 127.995 46.768 127.93 50.15 127.865 50.605 C 127.735 51.71 125.786 51.58 123.967 50.345 C 122.732 49.434 122.083 49.369 120.004 50.02 C 117.665 50.67 113.506 54.052 113.506 55.222 C 113.506 55.938 118.054 58.344 120.978 59.124 C 122.408 59.514 127.8 60.295 132.998 60.815 C 138.131 61.4 142.484 61.986 142.614 62.116 C 143.523 63.026 144.043 61.075 144.043 56.718 Z" fill="#7F56D9" fill-rule="nonzero"></path>
</svg>