<svg xmlns="http://www.w3.org/2000/svg" width="93.341" height="211.076" viewBox="0 0 93.341 211.076" fill="none">
  <path d="M 9.629 210.047 C 4.496 207.576 1.378 202.503 0.273 194.764 C -2.001 178.506 10.149 156.005 28.146 143.258 C 33.214 139.682 33.084 139.877 31.395 138.056 C 29.316 135.845 30.16 133.373 33.669 131.487 C 36.008 130.317 36.333 129.862 36.852 126.74 C 37.632 122.058 36.527 116.465 33.734 110.742 C 31.46 106.255 30.615 105.149 20.869 93.574 C 14.957 86.615 13.463 83.884 12.683 78.876 C 11.383 70.942 14.502 65.089 22.883 59.692 C 24.703 58.586 30.94 55.464 36.852 52.863 C 50.821 46.62 52.511 45.71 56.409 42.783 C 60.502 39.792 62.906 35.369 63.881 29.451 C 64.92 23.208 64.27 17.811 61.477 8.771 C 59.592 2.658 59.268 0.967 59.917 0.317 C 61.022 -0.724 61.996 0.642 64.53 6.755 C 67.844 14.689 68.559 18.786 68.299 26.785 C 68.104 32.898 67.779 34.589 66.35 37.646 C 62.776 45.384 58.748 48.376 41.92 55.92 C 27.366 62.423 23.143 64.764 19.83 68.341 C 16.516 71.983 15.801 75.429 17.361 80.762 C 18.465 84.404 21.389 88.501 30.03 98.386 C 37.307 106.71 40.946 115.685 40.296 123.749 C 40.036 126.22 39.711 128.951 39.516 129.667 C 39.191 130.772 39.451 131.162 40.751 131.487 C 43.35 132.138 45.039 134.154 45.039 136.69 C 45.039 138.836 45.039 138.901 51.081 140.982 C 73.042 148.656 90.844 164.264 93.053 177.791 C 94.937 189.562 87.465 197.235 74.276 197.105 C 67.129 197.04 60.567 194.699 51.991 189.171 C 48.092 186.7 44.584 184.749 44.194 184.944 C 43.739 185.074 41.855 187.871 39.906 191.187 C 31.135 205.95 18.076 214.079 9.629 210.047 Z M 20.739 204.389 C 26.067 201.723 29.835 197.821 35.098 189.822 C 37.827 185.66 40.621 181.758 41.4 181.172 C 43.739 179.221 46.468 179.742 50.951 182.863 C 56.084 186.31 63.296 190.017 66.999 191.057 C 71.222 192.163 78.044 192.033 81.228 190.732 C 89.674 187.35 90.324 178.831 83.047 168.621 C 76.615 159.582 61.542 148.916 47.833 143.649 C 44.909 142.543 41.79 141.633 40.946 141.633 C 38.801 141.633 28.666 148.721 23.403 153.859 C 15.607 161.533 9.629 170.962 6.316 180.652 C 4.626 185.529 4.626 194.764 6.251 198.991 C 8.85 205.69 14.177 207.706 20.739 204.389 Z" fill="#7F56D9" fill-rule="nonzero"></path>
</svg>