<svg xmlns="http://www.w3.org/2000/svg" width="83.722" height="98.468" viewBox="0 0 83.722 98.468" fill="none">
  <path d="M 72.027 96.933 C 72.027 96.023 73.326 91.731 74.951 87.309 C 76.575 82.886 78.004 78.269 78.069 77.033 L 78.199 74.757 L 65.984 74.757 C 53.9 74.757 53.705 74.757 52.47 73.197 C 49.871 70.01 50.716 66.433 57.473 52.256 C 59.812 47.249 61.566 42.956 61.371 42.761 C 61.177 42.566 53.445 45.623 44.284 49.59 C 35.058 53.557 26.741 57.003 25.702 57.264 C 22.193 58.109 18.75 55.313 18.75 51.671 C 18.75 49.134 21.154 44.517 30.9 28.064 C 36.357 18.894 41.36 10.18 41.88 8.684 C 44.089 3.287 41.49 3.872 25.442 12.716 C 5.496 23.642 -0.547 26.178 0.038 23.252 C 0.298 21.886 3.222 19.87 16.476 11.936 C 35.448 0.49 42.854 -2.046 46.883 1.466 C 49.936 4.132 47.792 9.465 35.838 29.56 C 23.623 49.98 22.843 51.671 25.117 51.671 C 25.767 51.671 32.134 49.069 39.281 45.883 C 59.552 36.908 63.775 35.608 66.504 37.624 C 68.648 39.185 67.934 42.436 63.061 52.711 C 57.213 65.263 56.044 68.449 56.888 69.295 C 57.343 69.75 60.267 69.75 66.179 69.23 C 80.278 68.059 83.722 69.295 83.722 75.603 C 83.722 79.83 82.487 83.081 77.809 91.471 C 73.976 98.364 72.027 100.12 72.027 96.933 Z" fill="#7F56D9" fill-rule="nonzero"></path>
</svg>