<svg xmlns="http://www.w3.org/2000/svg" width="153.297" height="41.665" viewBox="0 0 153.297 41.665" fill="none">
  <path d="M 84.427 41.197 C 75.656 38.921 69.484 30.662 69.484 21.167 L 69.484 16.55 L 58.958 16.94 C 40.701 17.59 23.484 21.232 8.865 27.54 C 4.252 29.491 0.289 30.987 0.094 30.792 C -0.556 30.076 2.238 27.67 6.396 25.394 C 20.43 17.525 42.715 12.192 62.856 11.932 L 72.147 11.802 L 74.551 9.136 C 83.128 -0.164 98.461 -2.505 116.588 2.763 C 123.475 4.779 132.831 8.486 143.097 13.233 C 151.023 16.94 153.297 18.371 153.297 19.541 C 153.297 20.647 149.139 19.411 137.639 14.729 C 110.351 3.738 96.122 1.722 84.752 7.445 C 81.633 8.941 77.93 11.932 77.93 12.908 C 77.93 13.168 78.71 13.558 79.749 13.818 C 80.724 14.013 83.907 15.379 86.766 16.745 C 92.224 19.281 96.512 22.858 98.396 26.5 C 99.89 29.361 99.89 34.238 98.396 36.71 C 96.057 40.677 90.015 42.628 84.427 41.197 Z M 92.743 35.214 C 94.433 34.043 94.628 31.247 93.198 28.451 C 91.184 24.484 83.063 19.541 76.501 18.24 C 75.006 17.98 74.681 18.175 74.292 19.606 C 73.187 24.093 76.825 31.247 81.763 34.369 C 85.142 36.58 90.275 36.97 92.743 35.214 Z" fill="#7F56D9" fill-rule="nonzero"></path>
</svg>