<svg xmlns="http://www.w3.org/2000/svg" width="136.185" height="140.314" viewBox="0 0 136.185 140.314" fill="none">
  <path d="M 109.157 139.138 C 108.052 138.488 103.699 135.366 99.541 132.245 L 91.939 126.587 L 86.936 128.863 C 80.179 131.92 70.109 135.171 67.25 135.171 C 65.756 135.171 64.521 134.716 63.741 133.87 C 61.922 131.854 63.352 129.578 72.643 119.823 C 77.256 114.946 80.894 110.654 80.764 110.199 C 80.634 109.808 77.905 107.532 74.722 105.126 C 71.538 102.72 67.9 99.598 66.6 98.233 C 64.261 95.761 64.261 95.761 63.871 88.348 C 63.222 76.187 58.284 61.099 51.527 50.759 C 42.496 36.842 26.708 21.689 9.295 10.114 C 1.434 4.846 -0.581 2.83 0.134 0.944 C 1.044 -1.397 8.061 0.489 26.513 8.033 C 39.832 13.495 60.038 24.876 73.487 34.566 C 87.131 44.386 100.321 58.303 105.388 68.318 C 106.233 70.009 107.662 71.895 108.507 72.415 C 110.001 73.455 110.911 75.796 114.095 88.088 L 115.459 93.355 L 119.227 94.006 C 126.244 95.371 133.456 97.582 134.821 98.818 C 135.6 99.533 136.185 100.769 136.185 101.614 C 136.185 103.565 134.496 104.606 123.385 109.483 C 118.837 111.499 114.809 113.45 114.484 113.71 C 114.095 114.101 114.16 117.873 114.679 123.27 C 115.524 133.09 115.004 138.098 113.055 139.528 C 111.561 140.634 111.561 140.634 109.157 139.138 Z M 111.171 129.578 C 111.171 126.782 110.911 121.905 110.586 118.783 L 110.066 113.06 L 111.95 111.239 C 113.055 110.264 117.343 107.988 121.436 106.232 C 129.103 102.915 131.507 101.614 130.922 101.029 C 130.727 100.899 126.959 99.793 122.476 98.753 C 114.095 96.607 111.885 95.371 111.236 92.055 C 110.131 86.787 107.987 78.073 107.467 77.032 C 106.883 75.927 106.753 75.992 105.583 77.682 C 104.869 78.723 102.66 82.625 100.645 86.397 C 98.631 90.169 96.162 94.006 95.188 95.046 C 93.044 97.127 90.51 97.322 80.959 95.826 C 74.137 94.786 69.264 94.591 69.264 95.371 C 69.264 95.631 72.772 98.623 77.061 101.94 C 83.688 107.077 84.857 108.248 84.857 109.743 C 84.857 112.02 82.778 114.816 75.176 123.075 C 69.849 128.863 68.549 130.619 69.589 130.619 C 69.784 130.619 74.787 128.798 80.634 126.652 L 91.289 122.62 L 95.708 125.286 C 98.111 126.717 102.335 129.578 104.934 131.529 C 107.597 133.545 110.131 135.106 110.456 134.976 C 110.911 134.846 111.171 132.635 111.171 129.578 Z M 88.106 85.681 C 79.66 60.449 62.182 38.468 38.402 23.185 C 32.49 19.348 22.484 14.276 22.484 15.121 C 22.484 15.251 25.863 18.178 29.956 21.689 C 39.442 29.688 48.668 39.443 53.736 46.857 C 61.597 58.368 66.6 72.155 67.12 83.991 L 67.51 90.949 L 72.448 91.014 C 75.176 91.014 80.049 91.404 83.233 91.86 C 86.482 92.315 89.34 92.445 89.6 92.185 C 89.925 91.99 89.21 88.998 88.106 85.681 Z M 96.487 85.226 C 97.267 83.73 99.216 80.479 100.775 78.008 C 102.4 75.536 103.699 73.325 103.699 73.13 C 103.699 72.35 98.176 64.481 93.498 58.628 C 81.479 43.605 61.272 28.648 36.453 16.487 C 23.849 10.374 19.301 8.683 28.007 13.43 C 43.145 21.624 52.761 28.453 63.092 38.208 C 76.996 51.344 87.521 69.033 91.679 86.202 C 92.784 90.884 92.784 90.949 93.953 89.453 C 94.538 88.673 95.708 86.787 96.487 85.226 Z" fill="#7F56D9" fill-rule="nonzero"></path>
</svg>