<svg xmlns="http://www.w3.org/2000/svg" width="131.759" height="124.434" viewBox="0 0 131.759 124.434" fill="none">
  <path d="M 6.822 122.338 C 2.209 114.794 0 106.535 0 96.195 C 0 86.895 1.04 82.343 4.938 74.409 C 7.147 69.857 8.706 67.775 14.034 62.443 C 20.141 56.33 20.531 55.81 21.181 52.363 C 23.585 38.966 37.749 24.529 57.435 15.294 C 75.237 6.97 104.15 0.207 122.927 0.012 C 129.359 -0.053 130.983 0.142 131.503 0.922 C 132.412 2.418 131.308 2.678 121.432 3.523 C 98.302 5.344 75.237 11.067 58.345 19.131 C 45.35 25.244 34.63 33.894 28.977 42.738 C 26.768 46.315 24.04 52.883 24.559 53.468 C 24.754 53.663 27.028 53.143 29.627 52.363 C 35.215 50.737 38.463 50.672 42.881 51.973 C 47.494 53.338 50.353 56.46 50.808 60.687 C 51.198 64.979 50.678 66.735 48.274 69.466 C 45.545 72.588 41.647 73.954 36.514 73.628 C 29.692 73.173 24.884 69.922 22.545 64.264 C 21.895 62.703 20.986 61.402 20.466 61.402 C 19.167 61.402 12.28 68.816 9.746 73.043 C 2.274 85.269 1.494 102.568 7.667 117.72 C 8.966 120.842 9.811 123.638 9.616 123.899 C 8.966 124.939 8.186 124.484 6.822 122.338 Z M 41.322 69.857 C 44.376 68.946 47.689 65.239 47.689 62.638 C 47.689 57.565 43.661 54.574 36.644 54.639 C 30.797 54.639 24.949 57.24 24.949 59.842 C 24.949 63.093 28.003 67.19 31.641 68.946 C 35.345 70.637 37.619 70.832 41.322 69.857 Z" fill="#7F56D9" fill-rule="nonzero"></path>
</svg>